HIERARCHY
ROOT SpineBase
{
  OFFSET 0.000000 0.000000 0.000000
  CHANNELS 6 Xposition Yposition Zposition Zrotation Xrotation Yrotation
  JOINT SpineMid
  {
    OFFSET 0.000000 31.662078 0.000000
    CHANNELS 3 Zrotation Xrotation Yrotation
    JOINT SpineShoulder
    {
      OFFSET 0.399316 23.543714 -0.619902
      CHANNELS 3 Zrotation Xrotation Yrotation
      JOINT Neck
      {
        OFFSET 0.254640 7.788234 -0.516750
        CHANNELS 3 Zrotation Xrotation Yrotation
        JOINT Head
        {
          OFFSET 3.774637 12.457168 5.563931
          CHANNELS 3 Zrotation Xrotation Yrotation
          End Site
          {
            OFFSET 0 0 0
          }
        }
      }
      JOINT ShoulderLeft
      {
        OFFSET -6.831898 -3.466399 -14.759744
        CHANNELS 3 Zrotation Xrotation Yrotation
        JOINT ElbowLeft
        {
          OFFSET -3.020844 -26.020140 -8.043072
          CHANNELS 3 Zrotation Xrotation Yrotation
          JOINT WristLeft
          {
            OFFSET 5.049434 -22.674365 -2.522340
            CHANNELS 3 Zrotation Xrotation Yrotation
            JOINT HandLeft
            {
              OFFSET 1.486577 -8.043340 1.999513
              CHANNELS 3 Zrotation Xrotation Yrotation
              JOINT HandTipLeft
              {
                OFFSET 0.884127 -7.404665 0.816812
                CHANNELS 3 Zrotation Xrotation Yrotation
                End Site
                {
                  OFFSET 0 0 0
                }
              }
              JOINT ThumbLeft
              {
                OFFSET 2.833719 2.564259 6.030557
                CHANNELS 3 Zrotation Xrotation Yrotation
                End Site
                {
                  OFFSET 0 0 0
                }
              }
            }
          }
        }
      }
      JOINT ShoulderRight
      {
        OFFSET 6.931418 -5.009306 14.886243
        CHANNELS 3 Zrotation Xrotation Yrotation
        JOINT ElbowRight
        {
          OFFSET 0.606311 -27.972787 4.959980
          CHANNELS 3 Zrotation Xrotation Yrotation
          JOINT WristRight
          {
            OFFSET 5.299465 -20.469698 2.490723
            CHANNELS 3 Zrotation Xrotation Yrotation
            JOINT HandRight
            {
              OFFSET 2.858805 -6.370461 0.357131
              CHANNELS 3 Zrotation Xrotation Yrotation
              JOINT HandTipRight
              {
                OFFSET 3.544022 -6.119327 -1.478032
                CHANNELS 3 Zrotation Xrotation Yrotation
                End Site
                {
                  OFFSET 0 0 0
                }
              }
              JOINT ThumbRight
              {
                OFFSET 4.491035 0.494178 -3.008122
                CHANNELS 3 Zrotation Xrotation Yrotation
                End Site
                {
                  OFFSET 0 0 0
                }
              }
            }
          }
        }
      }
    }
  }
  JOINT HipLeft
  {
    OFFSET -2.198660 1.633376 -9.738124
    CHANNELS 3 Zrotation Xrotation Yrotation
    JOINT KneeLeft
    {
      OFFSET -11.700403 -37.511926 -3.935557
      CHANNELS 3 Zrotation Xrotation Yrotation
      JOINT AnkleLeft
      {
        OFFSET -9.076643 -37.006644 4.063381
        CHANNELS 3 Zrotation Xrotation Yrotation
        JOINT FootLeft
        {
          OFFSET 4.374548 -7.601415 -3.730202
          CHANNELS 3 Zrotation Xrotation Yrotation
          End Site
          {
            OFFSET 0 0 0
          }
        }
      }
    }
  }
  JOINT HipRight
  {
    OFFSET 4.388841 0.313712 2.951772
    CHANNELS 3 Zrotation Xrotation Yrotation
    JOINT KneeRight
    {
      OFFSET -6.795681 -40.562698 1.640544
      CHANNELS 3 Zrotation Xrotation Yrotation
      JOINT AnkleRight
      {
        OFFSET -11.135987 -34.493608 4.100779
        CHANNELS 3 Zrotation Xrotation Yrotation
        JOINT FootRight
        {
          OFFSET 7.049335 -5.658770 -5.523518
          CHANNELS 3 Zrotation Xrotation Yrotation
          End Site
          {
            OFFSET 0 0 0
          }
        }
      }
    }
  }
}
MOTION
Frames: 9
Frame Time: 0.033333
-94.509194 88.502324 311.580439 -0.000000 0.000000 -62.565549 -0.000000 0.000000 62.565549 -0.000000 0.000000 0.000000 -0.000000 0.000000 0.000000 0.000000 0.000000 0.000000 -0.000000 0.000000 0.000000 -0.000000 0.000000 0.000000 -0.000000 0.000000 0.000000 -0.000000 0.000000 0.000000 0.000000 0.000000 0.000000 0.000000 0.000000 0.000000 -0.000000 0.000000 0.000000 -0.000000 0.000000 0.000000 -0.000000 0.000000 0.000000 -0.000000 0.000000 0.000000 0.000000 0.000000 0.000000 0.000000 0.000000 0.000000 -0.000000 0.000000 62.565549 -0.000000 0.000000 0.000000 -0.000000 0.000000 0.000000 0.000000 0.000000 0.000000 -0.000000 0.000000 62.565549 -0.000000 0.000000 0.000000 -0.000000 0.000000 0.000000 0.000000 0.000000 0.000000
-94.210407 88.452500 311.741356 0.055083 -0.085271 -62.049429 -0.101143 -0.008690 62.049462 -0.000000 0.000000 0.000000 -0.000000 0.000000 0.000000 0.000000 0.000000 0.000000 -0.000000 0.000000 0.000000 -0.223570 1.127998 0.278093 -0.540234 2.477540 0.212823 1.574222 -6.131999 -0.590622 0.000000 0.000000 0.000000 0.000000 0.000000 0.000000 -0.000000 0.000000 0.000000 -4.691001 1.735492 -0.051320 -4.469320 -3.126819 -1.380763 2.118864 -2.142915 0.636383 0.000000 0.000000 0.000000 0.000000 0.000000 0.000000 -0.101143 -0.008690 62.049462 -0.000000 0.000000 0.000000 -5.403459 -4.146354 0.073918 0.000000 0.000000 0.000000 -0.101143 -0.008690 62.049462 -0.000000 0.000000 0.000000 -4.406368 -2.781776 0.786405 0.000000 0.000000 0.000000
-93.945301 88.402288 311.874512 0.087600 -0.138877 -61.606134 -0.163827 -0.011021 61.606224 -0.000000 0.000000 0.000000 0.414279 -1.228022 0.192653 0.000000 0.000000 0.000000 -0.000000 0.000000 0.000000 -0.540335 2.073547 0.531188 -1.044611 4.300587 0.305411 3.040525 -10.744767 -0.825632 0.000000 0.000000 0.000000 0.000000 0.000000 0.000000 1.146231 -0.692908 0.194911 -9.708616 3.731903 -0.113721 -9.129751 -5.368606 -3.059435 4.515796 -3.840567 1.084377 0.000000 0.000000 0.000000 0.000000 0.000000 0.000000 -0.163827 -0.011021 61.606224 -0.000000 0.000000 0.000000 -8.659018 -6.629799 -0.069877 0.000000 0.000000 0.000000 -0.163827 -0.011021 61.606224 -0.000000 0.000000 0.000000 -8.687628 -5.594122 1.278574 0.000000 0.000000 0.000000
-93.713875 88.351686 311.979905 0.097504 -0.160748 -61.234581 -0.187833 -0.008116 61.234705 -0.000000 0.000000 0.000000 0.564872 -1.708703 0.276167 0.000000 0.000000 0.000000 -0.254481 1.001835 -0.035320 -0.695084 1.832383 0.782898 -1.506259 5.421915 0.259073 4.465027 -13.829514 -0.777449 0.000000 0.000000 0.000000 0.000000 0.000000 0.000000 1.592546 -0.884300 0.275063 -13.342036 4.827172 -0.087026 -13.208546 -6.755288 -4.628081 6.515426 -5.159900 1.419951 0.000000 0.000000 0.000000 0.000000 0.000000 0.000000 -0.959166 -0.378473 61.149994 0.696572 -0.496899 0.085129 -9.637181 -7.369528 -0.139882 0.000000 0.000000 0.000000 -0.856701 -0.729332 61.151835 0.954421 -0.237904 0.080547 -12.749296 -8.335947 1.469462 0.000000 0.000000 0.000000
-93.516130 88.300696 312.057537 0.084766 -0.150841 -60.933799 -0.173025 -0.000809 60.933910 -0.000000 0.000000 0.000000 0.677882 -2.102189 0.350212 0.000000 0.000000 0.000000 -0.430235 1.312697 -0.014430 -1.017352 2.096808 0.954322 -1.925525 5.808037 0.053433 5.875908 -15.375195 -0.504432 0.000000 0.000000 0.000000 0.000000 0.000000 0.000000 1.962346 -0.979129 0.342885 -16.321018 5.487267 -0.098745 -16.228066 -7.436605 -5.773973 7.685732 -6.139772 1.768819 0.000000 0.000000 0.000000 0.000000 0.000000 0.000000 -1.022258 -0.460114 60.854184 0.814752 -0.518015 0.079993 -8.298494 -6.352813 -0.044753 0.000000 0.000000 0.000000 -0.913271 -0.861953 60.845177 1.112647 -0.226971 0.085364 -16.509807 -10.916572 1.375406 0.000000 0.000000 0.000000
-93.352066 88.249316 312.107407 0.049375 -0.109138 -60.702951 -0.119339 0.010345 60.703009 -0.000000 0.000000 0.000000 0.753315 -2.409461 0.414284 0.000000 0.000000 0.000000 -0.650721 1.610632 0.023176 -1.383456 2.187707 1.078211 -2.310100 5.425862 -0.335292 7.272034 -15.351511 -0.059384 0.000000 0.000000 0.000000 0.000000 0.000000 0.000000 2.259935 -0.980263 0.398083 -18.738743 5.757891 -0.188262 -17.992834 -7.581494 -6.329398 7.834628 -6.721875 2.328543 0.000000 0.000000 0.000000 0.000000 0.000000 0.000000 -0.956392 -0.524263 60.645208 0.876294 -0.467512 0.057623 -4.652111 -3.563886 0.091229 0.000000 0.000000 0.000000 -0.851003 -0.942124 60.620306 1.188896 -0.170328 0.078521 -19.904071 -13.265733 1.030306 0.000000 0.000000 0.000000
-93.202747 88.198483 312.137432 0.044675 -0.046702 -60.616268 -0.062614 -0.016013 60.616278 -0.000000 0.000000 0.000000 0.716338 -2.614186 0.494627 0.000000 0.000000 0.000000 -0.904413 1.965580 0.066451 -1.936166 2.161803 1.206916 -3.227773 3.232095 -1.370838 9.633813 -13.093886 0.848644 0.000000 0.000000 0.000000 0.000000 0.000000 0.000000 2.573236 -0.828222 0.456189 -21.237239 5.524042 -0.493239 -17.829033 -7.582639 -6.354021 6.186965 -6.177924 4.043511 0.000000 0.000000 0.000000 0.000000 0.000000 0.000000 -0.822307 -0.626937 60.594056 0.905206 -0.361871 0.020818 6.218971 3.395438 -1.228375 0.000000 0.000000 0.000000 -0.717794 -1.003198 60.548278 0.621472 0.479744 -0.183887 -33.853305 -23.349930 -3.100948 0.000000 0.000000 0.000000
-93.127041 88.147541 312.115927 -0.040150 0.071559 -60.606050 0.082053 -0.000141 60.606075 -0.000000 0.000000 0.000000 0.695684 -2.777902 0.555063 0.000000 0.000000 0.000000 -1.233376 2.251727 0.143004 -2.491955 1.843136 1.222848 -4.100753 0.428781 -2.613455 10.709151 -9.716811 1.418233 0.000000 0.000000 0.000000 0.000000 0.000000 0.000000 2.782748 -0.603912 0.494372 -22.900564 4.964274 -0.889868 -16.134881 -6.200210 -4.776934 3.786463 -6.054961 5.285682 0.000000 0.000000 0.000000 0.000000 0.000000 0.000000 -0.426881 -0.657423 60.651653 0.822354 -0.121483 -0.047627 13.313365 8.992300 -2.196186 0.000000 0.000000 0.000000 -0.368263 -0.966950 60.573087 0.257194 0.760005 -0.279741 -28.509443 -20.536115 -1.826577 0.000000 0.000000 0.000000
-93.111930 88.095498 312.052547 -0.192574 0.233114 -60.527853 0.297694 0.052963 60.528107 -0.000000 0.000000 0.000000 0.726683 -2.853650 0.565765 0.000000 0.000000 0.000000 -1.604482 2.501688 0.238548 -2.930384 1.268924 1.132624 -4.355481 -2.064860 -3.601916 12.700764 -3.280609 2.348728 0.000000 0.000000 0.000000 0.000000 0.000000 0.000000 2.832832 -0.323627 0.502867 -23.814553 4.048747 -1.392344 -14.549631 -4.781083 -3.241138 5.391269 2.229559 12.864603 0.000000 0.000000 0.000000 0.000000 0.000000 0.000000 0.297694 0.052963 60.528107 -0.000000 0.000000 0.000000 16.935706 12.337706 -2.711266 0.000000 0.000000 0.000000 0.153395 -0.844954 60.545565 -0.243967 1.084965 -0.385155 -19.558791 -15.089609 0.041074 0.000000 0.000000 0.000000
